# xmcd
#
# Track frame offsets:
#	150
#	20588
#	35828
#	50800
#	63852
#	78138
#	92785
#	111415
#	126995
#	139158
#	153398
#	168553
#	185953
#	201815
#
# Disc length: 2939 seconds
#
# Revision: 2
# Processed by: cddbd v1.4PL0 Copyright (c) Steve Scherf et al.
# Submitted via: EasyCDDAExtractor 5.0.6
#
DISCID=cf0b790e
DTITLE=Racine and Rafael - Muito Louco Por Você
DYEAR=2003
DGENRE=Country
TTITLE0=so crazy for you
TTITLE1=eu me enganei
TTITLE2=meu erro
TTITLE3=deixa eu chorar
TTITLE4=quando é noite
TTITLE5=amor com calor
TTITLE6=não temos nada a ver
TTITLE7=essa cidade
TTITLE8=rasgando nota de 100    
TTITLE9=o amor é nosso fim
TTITLE10=foi engano
TTITLE11=17 de setembro
TTITLE12=chorando de dor
TTITLE13=a mesma pessoa
EXTD=
EXTT0=
EXTT1=
EXTT2=
EXTT3=
EXTT4=
EXTT5=
EXTT6=
EXTT7=
EXTT8=
EXTT9=
EXTT10=
EXTT11=
EXTT12=
EXTT13=
PLAYORDER=
